<svg
    xmlns="http://www.w3.org/2000/svg"
    fill="none"
    viewBox="0 0 64 64"
>
    <path
    fill="#006241"
    d="M32.192 62.914c16.996 0 30.774-13.777 30.774-30.773S49.188 1.368 32.192 1.368C15.197 1.368 1.42 15.145 1.42 32.14s13.778 30.773 30.773 30.773"
    ></path>
    <path
    fill="#fff"
    fill-rule="evenodd"
    d="M32.204 14.328c1.524 0 2.825.214 3.099.266.154.026.214-.129.094-.214l-3.193-2.434-3.192 2.434c-.12.094-.06.24.094.214l.057-.01c.368-.058 1.606-.256 3.041-.256m-2.44 15.752c.044-.145.206-.205.206-.205s.84.197 2.234.197c1.387 0 2.234-.197 2.234-.197s.163.051.206.205c-.182.141-.349.333-.525.535-.445.512-.951 1.094-1.915 1.094-.958 0-1.46-.576-1.904-1.086-.179-.205-.349-.4-.535-.543m2.013-2.197c.105.038.224.08.427.08s.318-.042.422-.08a.7.7 0 0 1 .289-.057c.248.009.719.197.821.377a.34.34 0 0 1-.102.24c-.237.034-.417.11-.597.186-.237.1-.473.2-.833.2-.364 0-.602-.1-.841-.2a2.4 2.4 0 0 0-.588-.186.4.4 0 0 1-.103-.24c.103-.18.574-.377.822-.377.114-.004.194.025.283.057m30.949 8.118c-1.787.285-2.985-.407-4.218-1.12-1.148-.663-2.327-1.344-4.041-1.27.214.754.385 1.534.522 2.323 1.368 0 2.355.592 3.347 1.187 1.14.683 2.284 1.369 4.016 1.167q.228-1.13.374-2.287m-.99 4.78c-1.257.108-2.117-.453-3.022-1.043-.935-.61-1.917-1.25-3.434-1.216q.036.64.034 1.294c0 .24-.009.48-.017.72 1.28-.017 2.128.569 2.961 1.144.822.568 1.63 1.126 2.824 1.086q.36-.978.654-1.986m-1.668 4.415c-.734-.054-1.266-.486-1.839-.952-.773-.628-1.62-1.317-3.138-1.214-.077.574-.18 1.148-.308 1.705 1.316-.092 2.045.554 2.73 1.163.516.456 1.007.891 1.703.976q.45-.825.852-1.678m-2.204 3.921c-.314-.173-.615-.453-.941-.756-.684-.638-1.478-1.377-2.73-1.44.188-.592.36-1.183.505-1.8-1.652 0-3.544-.643-5.127-2.091.29-1.653-1.027-3.32-2.23-4.842-.93-1.179-1.793-2.271-1.793-3.206 0-1.074.253-1.928.524-2.846.316-1.067.657-2.221.657-3.907 0-2.331-1.13-4.86-2.833-6.582a5.8 5.8 0 0 0-1.053-.848c1.567 1.937 2.765 4.242 2.765 6.899 0 1.508-.359 2.653-.71 3.775-.338 1.076-.668 2.132-.668 3.467 0 1.352.98 2.615 1.967 3.889 1.002 1.293 2.013 2.596 2.013 4.012 0 1.106-.351 2.186-1.515 4.311 1.789 1.791 4.117 2.768 5.623 2.768.488 0 .753-.145.925-.531.154-.334.29-.669.428-1.003 1.117.042 1.818.758 2.438 1.392.269.275.522.534.788.716q.5-.675.967-1.377m-2.513 3.29q-.117-.133-.245-.283c-.57-.663-1.312-1.528-2.326-1.792-.214.411-.436.822-.676 1.217.901.242 1.548 1.075 2.058 1.733l.177.226q.52-.539 1.012-1.102m-2.827 2.835c-.395-.604-1.003-1.368-1.678-1.782q-.374.515-.787 1.002c.572.388 1.086 1.082 1.42 1.66a31 31 0 0 0 1.045-.88m-3.293 2.529c-.172-1.283-.99-2.4-1.814-3.523-1.175-1.605-2.36-3.224-1.69-5.356-.376.643-.83 1.448-.83 2.408 0 1.367.755 2.587 1.512 3.811.694 1.122 1.39 2.247 1.507 3.489q.669-.398 1.315-.83m-3.094 1.81c-.066-1.473-.872-3.012-1.64-4.479-.728-1.39-1.423-2.716-1.423-3.862 0-1.26.792-2.525 1.617-3.842.897-1.433 1.833-2.928 1.833-4.548 0-1.606-1.058-2.956-2.082-4.262-.96-1.225-1.89-2.411-1.89-3.734 0-1.283.372-2.31.766-3.399.446-1.232.92-2.544.92-4.4 0-2.562-1.215-5.16-3.09-6.813a5 5 0 0 0-1.052-.729c1.772 2.126 2.799 4.062 2.799 6.985 0 1.654-.49 2.938-.975 4.215-.481 1.264-.96 2.521-.96 4.124 0 1.64 1.009 2.91 2 4.156.956 1.202 1.895 2.384 1.895 3.857 0 1.49-.895 2.864-1.796 4.25-.913 1.404-1.833 2.818-1.833 4.371 0 1.35.741 2.698 1.515 4.106.827 1.505 1.692 3.078 1.728 4.791a31 31 0 0 0 1.668-.787m-3.802 1.623c.205-1.842-.78-3.71-1.709-5.474-.763-1.448-1.489-2.826-1.489-4.061 0-1.471.906-2.841 1.829-4.237.96-1.452 1.937-2.931 1.937-4.582 0-1.61-.944-2.79-1.894-3.977-.963-1.203-1.932-2.414-1.932-4.088 0-1.621.56-2.889 1.134-4.187.602-1.363 1.22-2.761 1.22-4.64 0-2.862-1.412-5.434-3.475-7.028l-.128-.102c-.197-.146-.351.034-.214.197 1.455 1.825 2.234 3.668 2.234 6.393 0 1.694-.686 3.227-1.365 4.746-.669 1.495-1.332 2.977-1.332 4.587 0 2.015.998 3.275 1.946 4.472.858 1.084 1.675 2.116 1.675 3.61 0 1.549-.942 2.946-1.899 4.364-.986 1.462-1.987 2.947-1.987 4.643 0 1.38.728 2.825 1.48 4.32.935 1.858 1.909 3.792 1.572 5.771q1.22-.315 2.397-.727m-4.64 1.22c.39-2.601-.678-4.773-1.631-6.71-.675-1.371-1.292-2.625-1.292-3.831 0-1.586 1.017-3.085 2.028-4.575 1-1.475 1.995-2.941 1.995-4.475 0-1.508-.779-2.489-1.58-3.5-.745-.937-1.509-1.9-1.69-3.33-.051-.404-.376-.703-.83-.635-.187.033-.39.094-.616.164-.49.149-1.093.333-1.9.333-.823 0-1.438-.187-1.935-.338-.217-.066-.411-.125-.59-.159-.445-.077-.77.223-.822.634-.181 1.431-.945 2.394-1.689 3.331-.802 1.011-1.58 1.992-1.58 3.5 0 1.534.994 3 1.994 4.475 1.011 1.49 2.028 2.99 2.028 4.575 0 1.206-.617 2.46-1.292 3.831-.952 1.936-2.02 4.106-1.631 6.705 1.794.325 3.642.495 5.53.495a31 31 0 0 0 5.503-.49m-13.277-.5c-.333-1.977.639-3.908 1.573-5.764.753-1.495 1.48-2.94 1.48-4.32 0-1.697-1.001-3.181-1.987-4.643-.957-1.419-1.899-2.815-1.899-4.364 0-1.494.817-2.526 1.675-3.61.948-1.197 1.946-2.457 1.946-4.472 0-1.617-.665-3.102-1.334-4.599-.679-1.518-1.362-3.047-1.362-4.734 0-2.734.778-4.576 2.242-6.393.137-.172-.026-.343-.214-.197l-.128.102c-2.063 1.594-3.467 4.166-3.467 7.028 0 1.88.619 3.28 1.222 4.646.573 1.298 1.132 2.565 1.132 4.181 0 1.668-.968 2.88-1.93 4.083-.95 1.19-1.896 2.372-1.896 3.982 0 1.65.978 3.13 1.938 4.581.922 1.397 1.828 2.767 1.828 4.238 0 1.23-.724 2.606-1.487 4.054-.929 1.764-1.914 3.636-1.711 5.477q1.169.409 2.378.724m-4.512-1.56c.041-1.704.902-3.273 1.726-4.776.774-1.412 1.517-2.765 1.517-4.117 0-1.552-.92-2.963-1.832-4.366-.901-1.384-1.797-2.76-1.797-4.255 0-1.473.939-2.655 1.895-3.857.99-1.247 2-2.516 2-4.156 0-1.603-.48-2.86-.96-4.124-.487-1.277-.975-2.561-.975-4.215 0-2.931 1.027-4.86 2.799-6.985a5.2 5.2 0 0 0-1.053.729c-1.875 1.654-3.099 4.25-3.099 6.813 0 1.856.478 3.168.926 4.4.396 1.09.77 2.116.77 3.399 0 1.323-.93 2.51-1.89 3.734-1.024 1.306-2.082 2.656-2.082 4.262 0 1.62.934 3.11 1.83 4.541.826 1.318 1.619 2.584 1.619 3.85 0 1.145-.695 2.47-1.422 3.861-.768 1.466-1.573 3.003-1.64 4.474q.82.418 1.668.788m-3.447-1.77c.12-1.24.814-2.363 1.506-3.483.757-1.224 1.512-2.444 1.512-3.81 0-.96-.454-1.766-.83-2.41.676 2.129-.508 3.749-1.683 5.355-.822 1.124-1.64 2.242-1.812 3.523q.642.428 1.307.825m-3.555-2.473c.334-.577.84-1.271 1.42-1.659q-.413-.488-.787-1.002c-.675.414-1.283 1.177-1.677 1.781q.512.45 1.044.88m-2.86-2.614q.087-.108.176-.225c.511-.658 1.157-1.49 2.059-1.733-.24-.395-.463-.806-.668-1.217-1.014.264-1.756 1.13-2.325 1.791q-.13.153-.25.287.492.561 1.009 1.097m-2.553-3.01c.27-.184.528-.446.8-.724.62-.633 1.318-1.345 2.438-1.387l.053.128c.12.293.24.59.375.875.18.386.437.531.925.531 1.506 0 3.834-.977 5.623-2.768-1.164-2.125-1.515-3.205-1.515-4.31 0-1.417 1.013-2.72 2.018-4.014.989-1.273 1.97-2.536 1.97-3.888 0-1.335-.33-2.39-.667-3.467-.352-1.122-.71-2.267-.71-3.775 0-2.666 1.198-4.962 2.764-6.9-.385.24-.727.515-1.053.85-1.703 1.73-2.833 4.25-2.833 6.581 0 1.686.34 2.84.653 3.907.27.918.52 1.772.52 2.846 0 .935-.864 2.03-1.795 3.21-1.203 1.525-2.517 3.19-2.228 4.838-1.583 1.448-3.475 2.091-5.127 2.091.146.608.309 1.208.505 1.8-1.252.069-2.045.806-2.73 1.44-.33.307-.634.59-.952.763q.465.7.966 1.373m-2.322-3.621c.71-.08 1.207-.521 1.728-.982.685-.607 1.412-1.25 2.72-1.159a28 28 0 0 1-.308-1.705c-1.522-.103-2.372.587-3.148 1.216-.575.466-1.108.898-1.843.95q.4.855.851 1.68m-1.867-4.11c1.205.045 2.017-.514 2.843-1.084.832-.575 1.68-1.159 2.958-1.146q-.01-.36-.008-.72c0-.437.017-.866.034-1.294-1.512-.035-2.494.605-3.43 1.214-.912.595-1.78 1.16-3.051 1.042q.294 1.008.654 1.987m-1.27-4.481c1.745.207 2.894-.481 4.038-1.166.993-.594 1.98-1.185 3.35-1.185.128-.789.308-1.56.522-2.323-1.715-.074-2.894.606-4.044 1.268-1.237.713-2.44 1.406-4.24 1.12q.146 1.156.374 2.286m60.89-4.48a31 31 0 0 0 .03-2.578c-2.057.268-3.49-.486-4.94-1.248-1.557-.819-3.133-1.647-5.523-1.227.454.823.865 1.68 1.207 2.562 1.805-.196 3.092.5 4.407 1.21 1.37.74 2.77 1.497 4.819 1.28M6.303 32.526c-1.372.741-2.777 1.5-4.84 1.277a31 31 0 0 1-.03-2.57c2.065.274 3.5-.481 4.95-1.245 1.555-.82 3.13-1.648 5.519-1.228-.454.823-.856 1.68-1.207 2.563-1.798-.197-3.08.495-4.392 1.203m5.29-10.87c2.346-1.509 5.094-1.723 7.362-.797a23.1 23.1 0 0 0-5.949 6.084c-2.394-.832-4.344.069-6.169.912-1.554.719-3.019 1.396-4.59.923 3.321-3.523 6.017-7.534 5.658-12.153-.017-.274.222-.428.454-.266 1.686 1.174 2.875 3.111 3.235 5.297m14.723.12c.633-2.091 3.03-3.711 5.888-3.711s5.256 1.62 5.889 3.702c.043.163-.017.266-.206.18-.513-.231-1.104-.343-1.737-.343-1.164 0-2.191.429-2.799 1.174-.376 1.235-.35 2.614.094 3.694.35-.035.502-.37.647-.686.134-.295.261-.574.535-.574.2 0 .354.063.53.134.231.093.499.2.95.2.736 0 1.036-.205 1.353-.436.642.085.787.694.787 1.414 0 3.196-2.927 7.584-6.043 7.584s-6.042-4.396-6.042-7.584c0-.72.11-1.355.727-1.355.234 0 .382.076.545.16.202.102.427.218.867.218.45 0 .76-.107 1.03-.2.208-.072.392-.135.597-.135.256 0 .424.113.601.232.148.098.302.202.52.248.3-.728.282-2.014.008-2.905-.607-.746-1.634-1.174-2.798-1.174-.634 0-1.224.111-1.738.343-.188.085-.257-.017-.205-.18m8.448 1.637c.504-.558 1.309-.772 1.994-.772.847 0 1.267.292 1.275.695 0 .265-.094.497-.377.754-.522-.592-1.626-.575-2.867-.146a.76.76 0 0 1-.026-.531m-4.836.6c-1.31-.48-2.577-.506-3.176.094-.282-.257-.377-.497-.368-.763 0-.42.42-.703 1.267-.703 1.164 0 2.337.72 2.277 1.372m10.733-8.485c1.583-1.294 3.543-2.065 5.803-2.228-1.353 1.748-2.56 3.608-3.441 5.605-.103.223-.317.291-.548.18a23 23 0 0 0-10.27-2.409 22.94 22.94 0 0 0-10.272 2.409c-.23.12-.445.043-.547-.18-.89-2.006-2.097-3.857-3.45-5.605 2.268.154 4.228.934 5.812 2.228a23 23 0 0 0-2.61-5.21c2.875.3 5.28 1.353 7.035 3.153l1.37-3.608-3.048-2.7 4.083-.29 1.626-3.798 1.627 3.797 4.082.291-3.047 2.7 1.378 3.608c1.746-1.791 4.151-2.845 7.027-3.154a23.4 23.4 0 0 0-2.61 5.211m16.899 12.32c-1.824-.841-3.773-1.74-6.166-.913a23.4 23.4 0 0 0-5.949-6.085c2.268-.926 5.016-.711 7.361.797.36-2.185 1.55-4.122 3.235-5.296.232-.163.48-.009.454.265-.35 4.62 2.345 8.63 5.658 12.153-1.572.473-3.037-.203-4.593-.92"
    clip-rule="evenodd"
    ></path>
    <g fill="#006241" className="logo_svg__trademark">
    <path d="M58.076 59.35h-.966v3.205h-.513V59.35h-.966v-.436h2.437v.436zM62.299 62.547l-.35-2.727-1.06 2.727h-.343l-1.094-2.744-.325 2.744h-.487l.453-3.642h.505l1.137 2.813 1.128-2.813h.504l.453 3.642z"></path>
    </g>
</svg>